<svg width="339" height="154" viewBox="0 0 339 154" fill="none" xmlns="http://www.w3.org/2000/svg">
<style>
@media(prefers-color-scheme: dark) {
    path {
        fill: #fff;
    }
}
</style>
<path d="M0.116422 70.9765V65.7059V60.4353H5.38701H10.6576V65.7059V70.9765H5.38701H0.116422ZM7.64583 63.4471V58.1765V52.9059H12.9164H18.187V58.1765V63.4471H12.9164H7.64583ZM15.1752 55.9176V50.6471V45.3765H20.4458H25.7164V50.6471V55.9176H20.4458H15.1752ZM22.7047 48.3882V43.1176V37.8471H27.9752H33.2458V43.1176V48.3882H27.9752H22.7047ZM15.1752 40.8588V35.5882V30.3176H20.4458H25.7164V35.5882V40.8588H20.4458H15.1752ZM7.64583 33.3294V28.0588V22.7882H12.9164H18.187V28.0588V33.3294H12.9164H7.64583ZM0.116422 25.8V20.5294V15.2588H5.38701H10.6576V20.5294V25.8H5.38701H0.116422ZM79.2561 78.5059V73.2353V67.9647H84.5267H89.7973V73.2353V78.5059H84.5267H79.2561ZM86.7855 78.5059V73.2353V67.9647H92.0561H97.3267V73.2353V78.5059H92.0561H86.7855ZM94.315 78.5059V73.2353V67.9647H99.5855H104.856V73.2353V78.5059H99.5855H94.315ZM71.7267 70.9765V65.7059V60.4353H76.9973H82.2679V65.7059V70.9765H76.9973H71.7267ZM101.844 70.9765V65.7059V60.4353H107.115H112.386V65.7059V70.9765H107.115H101.844ZM71.7267 63.4471V58.1765V52.9059H76.9973H82.2679V58.1765V63.4471H76.9973H71.7267ZM71.7267 55.9176V50.6471V45.3765H76.9973H82.2679V50.6471V55.9176H76.9973H71.7267ZM71.7267 48.3882V43.1176V37.8471H76.9973H82.2679V43.1176V48.3882H76.9973H71.7267ZM71.7267 40.8588V35.5882V30.3176H76.9973H82.2679V35.5882V40.8588H76.9973H71.7267ZM71.7267 33.3294V28.0588V22.7882H76.9973H82.2679V28.0588V33.3294H76.9973H71.7267ZM101.844 33.3294V28.0588V22.7882H107.115H112.386V28.0588V33.3294H107.115H101.844ZM79.2561 25.8V20.5294V15.2588H84.5267H89.7973V20.5294V25.8H84.5267H79.2561ZM86.7855 25.8V20.5294V15.2588H92.0561H97.3267V20.5294V25.8H92.0561H86.7855ZM94.315 25.8V20.5294V15.2588H99.5855H104.856V20.5294V25.8H99.5855H94.315ZM120.727 78.5059V73.2353V67.9647H125.997H131.268V73.2353V78.5059H125.997H120.727ZM120.727 70.9765V65.7059V60.4353H125.997H131.268V65.7059V70.9765H125.997H120.727ZM120.727 63.4471V58.1765V52.9059H125.997H131.268V58.1765V63.4471H125.997H120.727ZM120.727 55.9176V50.6471V45.3765H125.997H131.268V50.6471V55.9176H125.997H120.727ZM120.727 48.3882V43.1176V37.8471H125.997H131.268V43.1176V48.3882H125.997H120.727ZM120.727 40.8588V35.5882V30.3176H125.997H131.268V35.5882V40.8588H125.997H120.727ZM143.315 40.8588V35.5882V30.3176H148.586H153.856V35.5882V40.8588H148.586H143.315ZM120.727 33.3294V28.0588V22.7882H125.997H131.268V28.0588V33.3294H125.997H120.727ZM143.315 33.3294V28.0588V22.7882H148.586H153.856V28.0588V33.3294H148.586H143.315ZM128.256 25.8V20.5294V15.2588H133.527H138.797V20.5294V25.8H133.527H128.256ZM135.786 25.8V20.5294V15.2588H141.056H146.327V20.5294V25.8H141.056H135.786ZM169.631 78.5059V73.2353V67.9647H174.902H180.172V73.2353V78.5059H174.902H169.631ZM177.161 78.5059V73.2353V67.9647H182.431H187.702V73.2353V78.5059H182.431H177.161ZM184.69 78.5059V73.2353V67.9647H189.961H195.231V73.2353V78.5059H189.961H184.69ZM162.102 70.9765V65.7059V60.4353H167.372H172.643V65.7059V70.9765H167.372H162.102ZM192.219 70.9765V65.7059V60.4353H197.49H202.761V65.7059V70.9765H197.49H192.219ZM162.102 63.4471V58.1765V52.9059H167.372H172.643V58.1765V63.4471H167.372H162.102ZM162.102 55.9176V50.6471V45.3765H167.372H172.643V50.6471V55.9176H167.372H162.102ZM162.102 48.3882V43.1176V37.8471H167.372H172.643V43.1176V48.3882H167.372H162.102ZM169.631 48.3882V43.1176V37.8471H174.902H180.172V43.1176V48.3882H174.902H169.631ZM177.161 48.3882V43.1176V37.8471H182.431H187.702V43.1176V48.3882H182.431H177.161ZM184.69 48.3882V43.1176V37.8471H189.961H195.231V43.1176V48.3882H189.961H184.69ZM192.219 48.3882V43.1176V37.8471H197.49H202.761V43.1176V48.3882H197.49H192.219ZM162.102 40.8588V35.5882V30.3176H167.372H172.643V35.5882V40.8588H167.372H162.102ZM192.219 40.8588V35.5882V30.3176H197.49H202.761V35.5882V40.8588H197.49H192.219ZM162.102 33.3294V28.0588V22.7882H167.372H172.643V28.0588V33.3294H167.372H162.102ZM192.219 33.3294V28.0588V22.7882H197.49H202.761V28.0588V33.3294H197.49H192.219ZM169.631 25.8V20.5294V15.2588H174.902H180.172V20.5294V25.8H174.902H169.631ZM177.161 25.8V20.5294V15.2588H182.431H187.702V20.5294V25.8H182.431H177.161ZM184.69 25.8V20.5294V15.2588H189.961H195.231V20.5294V25.8H189.961H184.69ZM214.866 78.5059V73.2353V67.9647H220.137H225.408V73.2353V78.5059H220.137H214.866ZM222.396 78.5059V73.2353V67.9647H227.666H232.937V73.2353V78.5059H227.666H222.396ZM237.455 78.5059V73.2353V67.9647H242.725H247.996V73.2353V78.5059H242.725H237.455ZM207.337 70.9765V65.7059V60.4353H212.608H217.878V65.7059V70.9765H212.608H207.337ZM229.925 70.9765V65.7059V60.4353H235.196H240.466V65.7059V70.9765H235.196H229.925ZM237.455 70.9765V65.7059V60.4353H242.725H247.996V65.7059V70.9765H242.725H237.455ZM207.337 63.4471V58.1765V52.9059H212.608H217.878V58.1765V63.4471H212.608H207.337ZM237.455 63.4471V58.1765V52.9059H242.725H247.996V58.1765V63.4471H242.725H237.455ZM214.866 55.9176V50.6471V45.3765H220.137H225.408V50.6471V55.9176H220.137H214.866ZM222.396 55.9176V50.6471V45.3765H227.666H232.937V50.6471V55.9176H227.666H222.396ZM229.925 55.9176V50.6471V45.3765H235.196H240.466V50.6471V55.9176H235.196H229.925ZM237.455 55.9176V50.6471V45.3765H242.725H247.996V50.6471V55.9176H242.725H237.455ZM237.455 48.3882V43.1176V37.8471H242.725H247.996V43.1176V48.3882H242.725H237.455ZM237.455 40.8588V35.5882V30.3176H242.725H247.996V35.5882V40.8588H242.725H237.455ZM207.337 33.3294V28.0588V22.7882H212.608H217.878V28.0588V33.3294H212.608H207.337ZM237.455 33.3294V28.0588V22.7882H242.725H247.996V28.0588V33.3294H242.725H237.455ZM214.866 25.8V20.5294V15.2588H220.137H225.408V20.5294V25.8H220.137H214.866ZM222.396 25.8V20.5294V15.2588H227.666H232.937V20.5294V25.8H227.666H222.396ZM229.925 25.8V20.5294V15.2588H235.196H240.466V20.5294V25.8H235.196H229.925ZM271.396 78.5059V73.2353V67.9647H276.666H281.937V73.2353V78.5059H276.666H271.396ZM278.925 78.5059V73.2353V67.9647H284.196H289.466V73.2353V78.5059H284.196H278.925ZM263.866 70.9765V65.7059V60.4353H269.137H274.408V65.7059V70.9765H269.137H263.866ZM263.866 63.4471V58.1765V52.9059H269.137H274.408V58.1765V63.4471H269.137H263.866ZM263.866 55.9176V50.6471V45.3765H269.137H274.408V50.6471V55.9176H269.137H263.866ZM263.866 48.3882V43.1176V37.8471H269.137H274.408V43.1176V48.3882H269.137H263.866ZM263.866 40.8588V35.5882V30.3176H269.137H274.408V35.5882V40.8588H269.137H263.866ZM263.866 33.3294V28.0588V22.7882H269.137H274.408V28.0588V33.3294H269.137H263.866ZM256.337 25.8V20.5294V15.2588H261.608H266.878V20.5294V25.8H261.608H256.337ZM263.866 25.8V20.5294V15.2588H269.137H274.408V20.5294V25.8H269.137H263.866ZM271.396 25.8V20.5294V15.2588H276.666H281.937V20.5294V25.8H276.666H271.396ZM278.925 25.8V20.5294V15.2588H284.196H289.466V20.5294V25.8H284.196H278.925ZM263.866 18.2706V13V7.72941H269.137H274.408V13V18.2706H269.137H263.866ZM263.866 10.7412V5.47058V0.199997H269.137H274.408V5.47058V10.7412H269.137H263.866ZM305.256 78.5059V73.2353V67.9647H310.527H315.797V73.2353V78.5059H310.527H305.256ZM312.786 78.5059V73.2353V67.9647H318.056H323.327V73.2353V78.5059H318.056H312.786ZM320.315 78.5059V73.2353V67.9647H325.586H330.856V73.2353V78.5059H325.586H320.315ZM297.727 70.9765V65.7059V60.4353H302.997H308.268V65.7059V70.9765H302.997H297.727ZM327.844 70.9765V65.7059V60.4353H333.115H338.386V65.7059V70.9765H333.115H327.844ZM297.727 63.4471V58.1765V52.9059H302.997H308.268V58.1765V63.4471H302.997H297.727ZM297.727 55.9176V50.6471V45.3765H302.997H308.268V50.6471V55.9176H302.997H297.727ZM297.727 48.3882V43.1176V37.8471H302.997H308.268V43.1176V48.3882H302.997H297.727ZM305.256 48.3882V43.1176V37.8471H310.527H315.797V43.1176V48.3882H310.527H305.256ZM312.786 48.3882V43.1176V37.8471H318.056H323.327V43.1176V48.3882H318.056H312.786ZM320.315 48.3882V43.1176V37.8471H325.586H330.856V43.1176V48.3882H325.586H320.315ZM327.844 48.3882V43.1176V37.8471H333.115H338.386V43.1176V48.3882H333.115H327.844ZM297.727 40.8588V35.5882V30.3176H302.997H308.268V35.5882V40.8588H302.997H297.727ZM327.844 40.8588V35.5882V30.3176H333.115H338.386V35.5882V40.8588H333.115H327.844ZM297.727 33.3294V28.0588V22.7882H302.997H308.268V28.0588V33.3294H302.997H297.727ZM327.844 33.3294V28.0588V22.7882H333.115H338.386V28.0588V33.3294H333.115H327.844ZM305.256 25.8V20.5294V15.2588H310.527H315.797V20.5294V25.8H310.527H305.256ZM312.786 25.8V20.5294V15.2588H318.056H323.327V20.5294V25.8H318.056H312.786ZM320.315 25.8V20.5294V15.2588H325.586H330.856V20.5294V25.8H325.586H320.315ZM92.2365 153.518V150.882V148.247H94.8718H97.5071V150.882V153.518H94.8718H92.2365ZM96.0012 153.518V150.882V148.247H98.6365H101.272V150.882V153.518H98.6365H96.0012ZM99.7659 153.518V150.882V148.247H102.401H105.037V150.882V153.518H102.401H99.7659ZM103.531 153.518V150.882V148.247H106.166H108.801V150.882V153.518H106.166H103.531ZM107.295 153.518V150.882V148.247H109.931H112.566V150.882V153.518H109.931H107.295ZM111.06 153.518V150.882V148.247H113.695H116.331V150.882V153.518H113.695H111.06ZM88.4718 149.753V147.118V144.482H91.1071H93.7424V147.118V149.753H91.1071H88.4718ZM84.7071 145.988V143.353V140.718H87.3424H89.9777V143.353V145.988H87.3424H84.7071ZM96.0012 145.988V143.353V140.718H98.6365H101.272V143.353V145.988H98.6365H96.0012ZM99.7659 145.988V143.353V140.718H102.401H105.037V143.353V145.988H102.401H99.7659ZM107.295 145.988V143.353V140.718H109.931H112.566V143.353V145.988H109.931H107.295ZM111.06 145.988V143.353V140.718H113.695H116.331V143.353V145.988H113.695H111.06ZM84.7071 142.224V139.588V136.953H87.3424H89.9777V139.588V142.224H87.3424H84.7071ZM92.2365 142.224V139.588V136.953H94.8718H97.5071V139.588V142.224H94.8718H92.2365ZM103.531 142.224V139.588V136.953H106.166H108.801V139.588V142.224H106.166H103.531ZM107.295 142.224V139.588V136.953H109.931H112.566V139.588V142.224H109.931H107.295ZM114.825 142.224V139.588V136.953H117.46H120.095V139.588V142.224H117.46H114.825ZM84.7071 138.459V135.824V133.188H87.3424H89.9777V135.824V138.459H87.3424H84.7071ZM92.2365 138.459V135.824V133.188H94.8718H97.5071V135.824V138.459H94.8718H92.2365ZM107.295 138.459V135.824V133.188H109.931H112.566V135.824V138.459H109.931H107.295ZM114.825 138.459V135.824V133.188H117.46H120.095V135.824V138.459H117.46H114.825ZM84.7071 134.694V132.059V129.424H87.3424H89.9777V132.059V134.694H87.3424H84.7071ZM92.2365 134.694V132.059V129.424H94.8718H97.5071V132.059V134.694H94.8718H92.2365ZM107.295 134.694V132.059V129.424H109.931H112.566V132.059V134.694H109.931H107.295ZM114.825 134.694V132.059V129.424H117.46H120.095V132.059V134.694H117.46H114.825ZM84.7071 130.929V128.294V125.659H87.3424H89.9777V128.294V130.929H87.3424H84.7071ZM92.2365 130.929V128.294V125.659H94.8718H97.5071V128.294V130.929H94.8718H92.2365ZM107.295 130.929V128.294V125.659H109.931H112.566V128.294V130.929H109.931H107.295ZM114.825 130.929V128.294V125.659H117.46H120.095V128.294V130.929H117.46H114.825ZM84.7071 127.165V124.529V121.894H87.3424H89.9777V124.529V127.165H87.3424H84.7071ZM92.2365 127.165V124.529V121.894H94.8718H97.5071V124.529V127.165H94.8718H92.2365ZM107.295 127.165V124.529V121.894H109.931H112.566V124.529V127.165H109.931H107.295ZM114.825 127.165V124.529V121.894H117.46H120.095V124.529V127.165H117.46H114.825ZM84.7071 123.4V120.765V118.129H87.3424H89.9777V120.765V123.4H87.3424H84.7071ZM96.0012 123.4V120.765V118.129H98.6365H101.272V120.765V123.4H98.6365H96.0012ZM99.7659 123.4V120.765V118.129H102.401H105.037V120.765V123.4H102.401H99.7659ZM103.531 123.4V120.765V118.129H106.166H108.801V120.765V123.4H106.166H103.531ZM114.825 123.4V120.765V118.129H117.46H120.095V120.765V123.4H117.46H114.825ZM88.4718 119.635V117V114.365H91.1071H93.7424V117V119.635H91.1071H88.4718ZM111.06 119.635V117V114.365H113.695H116.331V117V119.635H113.695H111.06ZM92.2365 115.871V113.235V110.6H94.8718H97.5071V113.235V115.871H94.8718H92.2365ZM96.0012 115.871V113.235V110.6H98.6365H101.272V113.235V115.871H98.6365H96.0012ZM99.7659 115.871V113.235V110.6H102.401H105.037V113.235V115.871H102.401H99.7659ZM103.531 115.871V113.235V110.6H106.166H108.801V113.235V115.871H106.166H103.531ZM107.295 115.871V113.235V110.6H109.931H112.566V113.235V115.871H109.931H107.295ZM126.145 149.753V147.118V144.482H128.78H131.415V147.118V149.753H128.78H126.145ZM141.203 149.753V147.118V144.482H143.839H146.474V147.118V149.753H143.839H141.203ZM126.145 145.988V143.353V140.718H128.78H131.415V143.353V145.988H128.78H126.145ZM139.321 145.988V143.353V140.718H141.956H144.592V143.353V145.988H141.956H139.321ZM126.145 142.224V139.588V136.953H128.78H131.415V139.588V142.224H128.78H126.145ZM137.439 142.224V139.588V136.953H140.074H142.709V139.588V142.224H140.074H137.439ZM126.145 138.459V135.824V133.188H128.78H131.415V135.824V138.459H128.78H126.145ZM135.556 138.459V135.824V133.188H138.192H140.827V135.824V138.459H138.192H135.556ZM126.145 134.694V132.059V129.424H128.78H131.415V132.059V134.694H128.78H126.145ZM129.909 134.694V132.059V129.424H132.545H135.18V132.059V134.694H132.545H129.909ZM133.674 134.694V132.059V129.424H136.309H138.945V132.059V134.694H136.309H133.674ZM126.145 130.929V128.294V125.659H128.78H131.415V128.294V130.929H128.78H126.145ZM135.556 130.929V128.294V125.659H138.192H140.827V128.294V130.929H138.192H135.556ZM126.145 127.165V124.529V121.894H128.78H131.415V124.529V127.165H128.78H126.145ZM137.439 127.165V124.529V121.894H140.074H142.709V124.529V127.165H140.074H137.439ZM126.145 123.4V120.765V118.129H128.78H131.415V120.765V123.4H128.78H126.145ZM139.321 123.4V120.765V118.129H141.956H144.592V120.765V123.4H141.956H139.321ZM126.145 119.635V117V114.365H128.78H131.415V117V119.635H128.78H126.145ZM126.145 115.871V113.235V110.6H128.78H131.415V113.235V115.871H128.78H126.145ZM126.145 112.106V109.471V106.835H128.78H131.415V109.471V112.106H128.78H126.145ZM126.145 108.341V105.706V103.071H128.78H131.415V105.706V108.341H128.78H126.145ZM154.409 149.753V147.118V144.482H157.045H159.68V147.118V149.753H157.045H154.409ZM158.174 149.753V147.118V144.482H160.809H163.445V147.118V149.753H160.809H158.174ZM161.939 149.753V147.118V144.482H164.574H167.209V147.118V149.753H164.574H161.939ZM150.645 145.988V143.353V140.718H153.28H155.915V143.353V145.988H153.28H150.645ZM165.703 145.988V143.353V140.718H168.339H170.974V143.353V145.988H168.339H165.703ZM150.645 142.224V139.588V136.953H153.28H155.915V139.588V142.224H153.28H150.645ZM165.703 142.224V139.588V136.953H168.339H170.974V139.588V142.224H168.339H165.703ZM150.645 138.459V135.824V133.188H153.28H155.915V135.824V138.459H153.28H150.645ZM165.703 138.459V135.824V133.188H168.339H170.974V135.824V138.459H168.339H165.703ZM150.645 134.694V132.059V129.424H153.28H155.915V132.059V134.694H153.28H150.645ZM165.703 134.694V132.059V129.424H168.339H170.974V132.059V134.694H168.339H165.703ZM150.645 130.929V128.294V125.659H153.28H155.915V128.294V130.929H153.28H150.645ZM165.703 130.929V128.294V125.659H168.339H170.974V128.294V130.929H168.339H165.703ZM150.645 127.165V124.529V121.894H153.28H155.915V124.529V127.165H153.28H150.645ZM165.703 127.165V124.529V121.894H168.339H170.974V124.529V127.165H168.339H165.703ZM154.409 123.4V120.765V118.129H157.045H159.68V120.765V123.4H157.045H154.409ZM158.174 123.4V120.765V118.129H160.809H163.445V120.765V123.4H160.809H158.174ZM161.939 123.4V120.765V118.129H164.574H167.209V120.765V123.4H164.574H161.939ZM182.667 149.753V147.118V144.482H185.302H187.937V147.118V149.753H185.302H182.667ZM180.784 145.988V143.353V140.718H183.42H186.055V143.353V145.988H183.42H180.784ZM184.549 145.988V143.353V140.718H187.184H189.82V143.353V145.988H187.184H184.549ZM178.902 142.224V139.588V136.953H181.537H184.173V139.588V142.224H181.537H178.902ZM186.431 142.224V139.588V136.953H189.067H191.702V139.588V142.224H189.067H186.431ZM177.02 138.459V135.824V133.188H179.655H182.29V135.824V138.459H179.655H177.02ZM188.314 138.459V135.824V133.188H190.949H193.584V135.824V138.459H190.949H188.314ZM175.137 134.694V132.059V129.424H177.773H180.408V132.059V134.694H177.773H175.137ZM190.196 134.694V132.059V129.424H192.831H195.467V132.059V134.694H192.831H190.196ZM175.137 130.929V128.294V125.659H177.773H180.408V128.294V130.929H177.773H175.137ZM190.196 130.929V128.294V125.659H192.831H195.467V128.294V130.929H192.831H190.196ZM175.137 127.165V124.529V121.894H177.773H180.408V124.529V127.165H177.773H175.137ZM190.196 127.165V124.529V121.894H192.831H195.467V124.529V127.165H192.831H190.196ZM175.137 123.4V120.765V118.129H177.773H180.408V120.765V123.4H177.773H175.137ZM190.196 123.4V120.765V118.129H192.831H195.467V120.765V123.4H192.831H190.196ZM203.347 149.753V147.118V144.482H205.982H208.617V147.118V149.753H205.982H203.347ZM207.112 149.753V147.118V144.482H209.747H212.382V147.118V149.753H209.747H207.112ZM210.876 149.753V147.118V144.482H213.512H216.147V147.118V149.753H213.512H210.876ZM199.582 145.988V143.353V140.718H202.217H204.853V143.353V145.988H202.217H199.582ZM214.641 145.988V143.353V140.718H217.276H219.912V143.353V145.988H217.276H214.641ZM199.582 142.224V139.588V136.953H202.217H204.853V139.588V142.224H202.217H199.582ZM214.641 142.224V139.588V136.953H217.276H219.912V139.588V142.224H217.276H214.641ZM210.876 138.459V135.824V133.188H213.512H216.147V135.824V138.459H213.512H210.876ZM207.112 136.576V133.941V131.306H209.747H212.382V133.941V136.576H209.747H207.112ZM203.347 134.694V132.059V129.424H205.982H208.617V132.059V134.694H205.982H203.347ZM199.582 130.929V128.294V125.659H202.217H204.853V128.294V130.929H202.217H199.582ZM214.641 130.929V128.294V125.659H217.276H219.912V128.294V130.929H217.276H214.641ZM199.582 127.165V124.529V121.894H202.217H204.853V124.529V127.165H202.217H199.582ZM214.641 127.165V124.529V121.894H217.276H219.912V124.529V127.165H217.276H214.641ZM203.347 123.4V120.765V118.129H205.982H208.617V120.765V123.4H205.982H203.347ZM207.112 123.4V120.765V118.129H209.747H212.382V120.765V123.4H209.747H207.112ZM210.876 123.4V120.765V118.129H213.512H216.147V120.765V123.4H213.512H210.876ZM229.722 149.753V147.118V144.482H232.357H234.992V147.118V149.753H232.357H229.722ZM233.487 149.753V147.118V144.482H236.122H238.757V147.118V149.753H236.122H233.487ZM241.016 149.753V147.118V144.482H243.651H246.287V147.118V149.753H243.651H241.016ZM225.957 145.988V143.353V140.718H228.592H231.228V143.353V145.988H228.592H225.957ZM237.251 145.988V143.353V140.718H239.887H242.522V143.353V145.988H239.887H237.251ZM241.016 145.988V143.353V140.718H243.651H246.287V143.353V145.988H243.651H241.016ZM225.957 142.224V139.588V136.953H228.592H231.228V139.588V142.224H228.592H225.957ZM241.016 142.224V139.588V136.953H243.651H246.287V139.588V142.224H243.651H241.016ZM225.957 138.459V135.824V133.188H228.592H231.228V135.824V138.459H228.592H225.957ZM241.016 138.459V135.824V133.188H243.651H246.287V135.824V138.459H243.651H241.016ZM225.957 134.694V132.059V129.424H228.592H231.228V132.059V134.694H228.592H225.957ZM241.016 134.694V132.059V129.424H243.651H246.287V132.059V134.694H243.651H241.016ZM225.957 130.929V128.294V125.659H228.592H231.228V128.294V130.929H228.592H225.957ZM241.016 130.929V128.294V125.659H243.651H246.287V128.294V130.929H243.651H241.016ZM225.957 127.165V124.529V121.894H228.592H231.228V124.529V127.165H228.592H225.957ZM241.016 127.165V124.529V121.894H243.651H246.287V124.529V127.165H243.651H241.016ZM225.957 123.4V120.765V118.129H228.592H231.228V120.765V123.4H228.592H225.957ZM241.016 123.4V120.765V118.129H243.651H246.287V120.765V123.4H243.651H241.016Z" fill="black"/>
</svg>
